<svg width="46.000000" height="46.000000" viewBox="0 0 46 46" fill="none" xmlns="http://www.w3.org/2000/svg" xmlns:xlink="http://www.w3.org/1999/xlink">
	<desc>
			Created with Pixso.
	</desc>
	<defs/>
	<circle id="Ellipse 4" cx="23.000000" cy="23.000000" r="23.000000" fill="#EFF2F4" fill-opacity="1.000000"/>
	<path id="Vector" d="M23.5 12L16.1843 19.5093L12 19.5093L12 24.5684L13.0267 24.5684L15.3112 32.3938L15.4911 33L31.5089 33L31.6888 32.3938L33.9733 24.5684L35 24.5684L35 19.5093L30.8157 19.5093L23.5 12ZM23.5 14.3979L28.4803 19.5093L18.5205 19.5093L23.5 14.3979ZM13.6428 21.1956L33.3572 21.1956L33.3572 22.8818L32.7411 22.8818L32.5612 23.4883L30.2767 31.3137L16.7233 31.3137L14.4388 23.4883L14.2589 22.8818L13.6428 22.8818L13.6428 21.1956ZM19.3928 23.7251L19.3928 29.6274L21.0358 29.6274L21.0358 23.7251L19.3928 23.7251ZM22.6786 23.7251L22.6786 29.6274L24.3214 29.6274L24.3214 23.7251L22.6786 23.7251ZM25.9642 23.7251L25.9642 29.6274L27.6072 29.6274L27.6072 23.7251L25.9642 23.7251Z" fill="#0E2149" fill-opacity="1.000000" fill-rule="nonzero"/>
</svg>
