<svg width="36.000000" height="33.000000" viewBox="0 0 36 33" fill="none" xmlns="http://www.w3.org/2000/svg" xmlns:xlink="http://www.w3.org/1999/xlink">
	<desc>
			Created with Pixso.
	</desc>
	<defs/>
	<circle id="Ellipse 4" cx="26.500000" cy="9.500000" r="9.500000" fill="#D79F43" fill-opacity="1.000000"/>
	<path id="3" d="M26.354 15.158C28.048 15.158 29.546 14.01 29.546 12.302C29.546 10.356 27.712 9.614 26.074 9.502L29.392 5.708L29.392 5.19L23.26 5.19L23.26 5.876L28.398 5.876L25.024 9.768L25.206 10.174L25.738 10.174C27.502 10.174 28.79 10.93 28.79 12.302C28.79 13.604 27.712 14.5 26.368 14.5C25.08 14.5 24.1 13.926 23.316 12.932L22.756 13.394C23.554 14.43 24.758 15.158 26.354 15.158Z" fill="#FFFFFF" fill-opacity="1.000000" fill-rule="evenodd"/>
	<path id="Vector" d="M11.5 14.5515L13.6562 18.9358L14.0156 19.7214L14.7969 19.8394L19.6094 20.5386L16.1875 23.9172L15.6016 24.4907L15.7422 25.2764L16.5625 30.0928L12.2578 27.822L11.5 27.5L10.7734 27.885L6.46875 30.1243L7.25 25.3079L7.39062 24.5222L6.8125 23.9172L3.35938 20.4993L8.17188 19.8L8.95312 19.6821L9.3125 18.8965L11.5 14.5515ZM11.5 11L7.94531 18.2444L0 19.3992L5.75 25.0408L4.39062 33L11.5 29.2444L18.6094 33L17.25 25.0408L23 19.4072L15.0547 18.2444L11.5 11Z" fill="#0E2149" fill-opacity="1.000000" fill-rule="nonzero"/>
</svg>
